<mxfile host="app.diagrams.net" modified="2021-06-19T01:34:44.997Z" agent="5.0 (Windows)" etag="d9LZY6WPiAnzbvRif1Np" version="14.8.0" type="github">
  <diagram id="1qOEAPikM7hvpksAuz3j" name="Page-1">
    <mxGraphModel dx="1422" dy="739" grid="1" gridSize="10" guides="1" tooltips="1" connect="1" arrows="1" fold="1" page="1" pageScale="1" pageWidth="800" pageHeight="600" math="0" shadow="0">
      <root>
        <mxCell id="0" />
        <mxCell id="1" parent="0" />
        <mxCell id="bravGS-sSqmdz95oagyP-11" value="&lt;div&gt;&lt;font style=&quot;font-size: 20px&quot;&gt;Steuerung &lt;br&gt;&lt;/font&gt;&lt;/div&gt;&lt;div&gt;&lt;font style=&quot;font-size: 20px&quot;&gt;und Regelung&lt;/font&gt;&lt;/div&gt;" style="edgeStyle=orthogonalEdgeStyle;rounded=0;orthogonalLoop=1;jettySize=auto;html=1;exitX=1;exitY=0.592;exitDx=0;exitDy=0;exitPerimeter=0;strokeWidth=2;entryX=0.508;entryY=0.008;entryDx=0;entryDy=0;entryPerimeter=0;" parent="1" source="bravGS-sSqmdz95oagyP-1" edge="1" target="bravGS-sSqmdz95oagyP-2">
          <mxGeometry x="0.738" y="-70" relative="1" as="geometry">
            <mxPoint as="offset" />
            <mxPoint x="641.31" y="420" as="targetPoint" />
          </mxGeometry>
        </mxCell>
        <mxCell id="bravGS-sSqmdz95oagyP-15" style="edgeStyle=orthogonalEdgeStyle;rounded=0;orthogonalLoop=1;jettySize=auto;html=1;exitX=0.5;exitY=0;exitDx=0;exitDy=0;strokeWidth=2;" parent="1" source="bravGS-sSqmdz95oagyP-1" edge="1">
          <mxGeometry relative="1" as="geometry">
            <mxPoint x="411.31" y="230" as="targetPoint" />
          </mxGeometry>
        </mxCell>
        <mxCell id="bravGS-sSqmdz95oagyP-1" value="&lt;div style=&quot;font-size: 24px&quot;&gt;&lt;font style=&quot;font-size: 24px&quot;&gt;&lt;font style=&quot;font-size: 24px&quot;&gt;«&lt;/font&gt;system&lt;/font&gt;&lt;font style=&quot;font-size: 24px&quot;&gt;»&lt;/font&gt;&lt;/div&gt;&lt;div style=&quot;font-size: 24px&quot;&gt;&lt;font style=&quot;font-size: 24px&quot;&gt;&lt;b&gt;ApolloAuto&lt;/b&gt;&lt;br&gt;&lt;/font&gt;&lt;/div&gt;" style="rounded=0;whiteSpace=wrap;html=1;" parent="1" vertex="1">
          <mxGeometry x="291.31" y="230" width="240" height="120" as="geometry" />
        </mxCell>
        <mxCell id="SQIaYl8tntXCcKwZIsBf-4" value="&lt;font style=&quot;font-size: 20px&quot;&gt;Messdaten&lt;/font&gt;" style="edgeStyle=orthogonalEdgeStyle;rounded=0;orthogonalLoop=1;jettySize=auto;html=1;entryX=1;entryY=0.5;entryDx=0;entryDy=0;exitX=0.557;exitY=0.008;exitDx=0;exitDy=0;exitPerimeter=0;strokeWidth=2;" edge="1" parent="1" source="bravGS-sSqmdz95oagyP-2" target="bravGS-sSqmdz95oagyP-1">
          <mxGeometry x="0.0607" y="-20" relative="1" as="geometry">
            <mxPoint as="offset" />
          </mxGeometry>
        </mxCell>
        <mxCell id="bravGS-sSqmdz95oagyP-2" value="&lt;b&gt;&lt;font style=&quot;font-size: 24px&quot;&gt;Fahrzeugaktorik&lt;/font&gt;&lt;/b&gt;" style="shape=cube;whiteSpace=wrap;html=1;boundedLbl=1;backgroundOutline=1;darkOpacity=0.05;darkOpacity2=0.1;direction=east;" parent="1" vertex="1">
          <mxGeometry x="531.31" y="440" width="240" height="120" as="geometry" />
        </mxCell>
        <mxCell id="bravGS-sSqmdz95oagyP-13" style="edgeStyle=orthogonalEdgeStyle;rounded=0;orthogonalLoop=1;jettySize=auto;html=1;entryX=0;entryY=0.5;entryDx=0;entryDy=0;strokeWidth=2;" parent="1" source="bravGS-sSqmdz95oagyP-4" target="bravGS-sSqmdz95oagyP-1" edge="1">
          <mxGeometry relative="1" as="geometry" />
        </mxCell>
        <mxCell id="bravGS-sSqmdz95oagyP-4" value="&lt;font style=&quot;font-size: 24px&quot;&gt;&lt;b&gt;Andere Verkehrsteilnehmer&lt;br&gt;&lt;/b&gt;&lt;/font&gt;" style="shape=cube;whiteSpace=wrap;html=1;boundedLbl=1;backgroundOutline=1;darkOpacity=0.05;darkOpacity2=0.1;direction=east;" parent="1" vertex="1">
          <mxGeometry x="29" y="440" width="280" height="120" as="geometry" />
        </mxCell>
        <mxCell id="SQIaYl8tntXCcKwZIsBf-2" style="edgeStyle=orthogonalEdgeStyle;rounded=0;orthogonalLoop=1;jettySize=auto;html=1;exitX=0;exitY=0;exitDx=130;exitDy=100;exitPerimeter=0;entryX=0.5;entryY=0;entryDx=0;entryDy=0;" edge="1" parent="1" source="bravGS-sSqmdz95oagyP-5" target="bravGS-sSqmdz95oagyP-1">
          <mxGeometry relative="1" as="geometry" />
        </mxCell>
        <mxCell id="bravGS-sSqmdz95oagyP-5" value="&lt;b&gt;&lt;font style=&quot;font-size: 24px&quot;&gt;Externe Kartendaten&lt;br&gt;&lt;/font&gt;&lt;/b&gt;" style="shape=cube;whiteSpace=wrap;html=1;boundedLbl=1;backgroundOutline=1;darkOpacity=0.05;darkOpacity2=0.1;direction=east;" parent="1" vertex="1">
          <mxGeometry x="281.31" y="60" width="240" height="100" as="geometry" />
        </mxCell>
        <mxCell id="bravGS-sSqmdz95oagyP-6" value="" style="html=1;verticalLabelPosition=bottom;align=center;labelBackgroundColor=#ffffff;verticalAlign=top;strokeWidth=2;strokeColor=#0080F0;shadow=0;dashed=0;shape=mxgraph.ios7.icons.map;" parent="1" vertex="1">
          <mxGeometry x="491.31" y="130" width="30" height="30" as="geometry" />
        </mxCell>
        <mxCell id="bravGS-sSqmdz95oagyP-7" value="" style="outlineConnect=0;fontColor=#232F3E;gradientColor=none;fillColor=#277116;strokeColor=none;dashed=0;verticalLabelPosition=bottom;verticalAlign=top;align=center;html=1;fontSize=12;fontStyle=0;aspect=fixed;pointerEvents=1;shape=mxgraph.aws4.car;" parent="1" vertex="1">
          <mxGeometry x="733.31" y="522" width="38" height="38" as="geometry" />
        </mxCell>
        <mxCell id="bravGS-sSqmdz95oagyP-8" value="" style="outlineConnect=0;fontColor=#232F3E;gradientColor=none;fillColor=#277116;strokeColor=none;dashed=0;verticalLabelPosition=bottom;verticalAlign=top;align=center;html=1;fontSize=12;fontStyle=0;aspect=fixed;pointerEvents=1;shape=mxgraph.aws4.sensor;" parent="1" vertex="1">
          <mxGeometry x="281.31" y="460" width="27.69" height="30" as="geometry" />
        </mxCell>
      </root>
    </mxGraphModel>
  </diagram>
</mxfile>
